HIERARCHY
ROOT pelvis
{
  OFFSET 0 100 0
  CHANNELS 6 Xposition Yposition Zposition Zrotation Xrotation Yrotation
  JOINT pelvis_right_femur
  {
    OFFSET -10.78128 -3.44521 -0.5502486
    CHANNELS 3 Zrotation Xrotation Yrotation
    JOINT right_femur_tibia
    {
      OFFSET -0.8047443 -44.0398 -0.1307829
      CHANNELS 3 Zrotation Xrotation Yrotation
      JOINT right_tibia_foot
      {
        OFFSET 3.006224 -47.83518 -5
        CHANNELS 3 Zrotation Xrotation Yrotation
        End Site
        {
          OFFSET 0 -5 15
        }
      }
    }
  }
  JOINT pelvis_left_femur
  {
    OFFSET 10.78128 -3.44521 -0.5502486
    CHANNELS 3 Zrotation Xrotation Yrotation
    JOINT left_femur_tibia
    {
      OFFSET 0.8047443 -44.0398 -0.1307829
      CHANNELS 3 Zrotation Xrotation Yrotation
      JOINT left_tibia_foot
      {
        OFFSET -4.370144 -48.10324 -4.275266
        CHANNELS 3 Zrotation Xrotation Yrotation
        End Site
        {
          OFFSET 0 -5 15
        }
      }
    }
  }
  JOINT pelvis_spine1
  {
    OFFSET 0 6.468898 -3.129235
    CHANNELS 3 Zrotation Xrotation Yrotation
    JOINT spine1
    {
      OFFSET 0 23.15396 4.99043
      CHANNELS 3 Zrotation Xrotation Yrotation
      JOINT spine2
      {
        OFFSET 0 20.79997 -5.064912
        CHANNELS 3 Zrotation Xrotation Yrotation
        JOINT neck
        {
          OFFSET 0 14.38658 9.616178
          CHANNELS 3 Zrotation Xrotation Yrotation
          End Site
          {
            OFFSET 0 20 0
          }
        }
      }
      JOINT right_manubrium
      {
        OFFSET -5.722621 16.35077 3.967754
        CHANNELS 3 Zrotation Xrotation Yrotation
        JOINT right_clavicle
        {
          OFFSET -13.16364 1.694482 -4.693211
          CHANNELS 3 Zrotation Xrotation Yrotation
          JOINT right_humerus
          {
            OFFSET -28.5034 -0.3100689 -2.792744
            CHANNELS 3 Zrotation Xrotation Yrotation
            JOINT right_radius
            {
              OFFSET -25.15693 0.02248979 -1.271978
              CHANNELS 3 Zrotation Xrotation Yrotation
              End Site
              {
                OFFSET -15 0 0
              }
            }
          }
        }
      }
      JOINT left_manubrium
      {
        OFFSET 5.722621 16.35077 3.967754
        CHANNELS 3 Zrotation Xrotation Yrotation
        JOINT left_clavicle
        {
          OFFSET 13.16364 1.694482 -4.693211
          CHANNELS 3 Zrotation Xrotation Yrotation
          JOINT left_humerus
          {
            OFFSET 29.39168 -1.063119 -2.237045
            CHANNELS 3 Zrotation Xrotation Yrotation
            JOINT left_radius
            {
              OFFSET 24.59957 -0.9528479 0.9047498
              CHANNELS 3 Zrotation Xrotation Yrotation
              End Site
              {
                OFFSET 15 -0 -0
              }
            }
          }
        }
      }
    }
  }
}
MOTION
Frames: 17
Frame Time: 0.0416666666667
0 103.5113 0 0.4829409 -0.7269619 0.1264113 3.942636 -18.59111 8.904773 -0 38.57695 -0 -6.34276 -12.16972 -2.421937 -7.027314 9.853669 -22.2208 -0 5.06819 -0 10.9269 -15.68346 26.57724 -2.984992 -3.241673 4.612332 2.213311 10.32819 -7.253725 1.490808 21.9152 6.930815 3.026531 -25.44668 9.927817 5.370242 -20.7385 11.73959 86.53058 33.99325 -18.40409 -0 0 15.9786 -7.848812 8.119125 5.29492 5.873728 -19.84622 -2.06451 -93.42041 24.04108 22.20561 0 0 -15.70766 11.98152 16.09842 1.112208
0.3717932 103.3173 2.020547 0.09065531 -0.4005179 0.2500618 4.499042 -20.32389 8.582234 -0 37.10964 -0 -6.624898 -11.47303 -2.291149 -6.667855 10.30712 -21.83054 -0 5.488333 -0 10.00394 -16.36932 25.8082 -2.768035 -2.900336 4.30406 2.37602 10.12252 -7.345984 1.474976 21.79261 7.032606 3.094572 -25.66325 9.966568 5.236176 -20.42684 11.67931 86.60095 33.83173 -18.58984 -0 0 15.61206 -7.920361 8.051788 5.286618 6.002823 -19.94956 -2.006195 -93.31657 24.19854 21.90771 0 0 -15.96862 11.65035 16.12118 1.415516
0.6924984 103.0629 4.37364 -0.5299974 0.7120387 0.401206 5.729498 -24.32987 8.370895 -0 33.01741 -0 -6.713921 -11.03365 -2.099903 -6.191289 11.24437 -21.20234 -0 6.468761 -0 9.15108 -17.54644 24.77334 -2.525774 -2.387224 3.985559 2.814491 9.664911 -7.608167 1.497166 21.37908 7.147248 3.156064 -26.20221 10.11905 5.207172 -19.78662 11.55345 86.59517 34.30129 -19.09834 -0 0 14.9409 -7.481504 8.069021 4.99158 6.353494 -20.14257 -1.633576 -92.70694 24.03412 20.87838 0 0 -17.12658 11.84417 15.63164 1.070691
0.9796341 102.7128 7.038839 -0.9329903 1.617338 0.6020888 6.570271 -27.37008 8.111261 -0 29.3332 -0 -6.763796 -10.4253 -1.907719 -5.907683 12.03228 -20.59471 -0 7.401167 -0 8.285499 -18.6403 23.77914 -2.410876 -2.012786 3.781695 3.144363 9.299264 -7.808164 1.506728 21.02693 7.251207 3.233566 -26.61763 10.21527 5.168791 -19.2503 11.43568 86.68402 34.66092 -19.63028 -0 0 14.30187 -7.217955 8.105814 4.793822 6.65642 -20.38132 -1.326344 -92.15574 23.95881 19.99824 0 0 -18.29653 11.81687 15.17687 0.9672767
1.266854 102.16 10.27207 -1.193155 1.974196 0.8753941 6.654785 -30.04088 6.352238 -0 24.62649 -0 -7.061711 -7.287607 -1.181892 -5.663234 12.62142 -18.70939 -0 8.46019 -0 7.06705 -19.79155 21.84409 -2.256988 -1.587247 3.51372 3.300264 9.46133 -8.017654 1.319715 20.74261 7.538437 3.460237 -26.84644 10.04557 4.694316 -18.83343 11.56686 87.45994 33.71425 -20.51055 -0 0 12.70827 -8.731779 8.422383 5.477303 7.053354 -21.48843 -1.647001 -90.79106 22.79667 18.31291 0 0 -20.51037 12.41175 14.60064 0.05360177
1.558515 101.3148 14.22263 -1.165289 1.796335 1.238674 5.93206 -31.96735 3.491774 -0 19.02461 -0 -7.520652 -3.180917 -0.2971329 -5.565651 13.31589 -16.09197 -0 9.627206 -0 5.588724 -20.97789 19.41261 -2.171283 -1.211863 3.247988 3.276488 9.824235 -8.166583 1.068896 20.66747 7.822004 3.675554 -26.66762 9.677656 3.818238 -18.39008 11.74875 88.75271 31.76708 -21.63425 -0 0 10.43203 -11.21805 8.790451 6.537707 7.480328 -23.08984 -2.363505 -88.884 21.20264 15.85819 0 0 -23.59235 13.19115 14.03696 -1.207398
1.833284 100.1205 18.98741 -0.7739859 1.11794 1.718156 4.602245 -32.79592 -0.02637653 -0 12.60997 -0 -8.074832 0.6713222 0.4003848 -5.676268 14.40619 -13.18048 -0 11.09628 -0 3.811774 -22.13498 16.79983 -2.179302 -0.9804131 3.00891 3.06973 10.08708 -8.179447 0.8778094 20.91756 7.923001 3.730404 -25.91428 9.16887 2.513992 -17.79256 11.79928 90.4671 29.00578 -22.89717 -0 0 7.697349 -13.95739 9.009047 7.515484 7.865143 -24.82714 -3.27891 -86.70298 19.75104 12.71362 0 0 -27.34309 13.67872 13.6418 -2.310381
2.062926 98.66675 24.53329 -0.1856294 0.1258841 2.327062 3.443586 -32.09491 -3.028447 -0 6.915793 -0 -8.694388 3.017259 0.5173546 -5.894694 15.85005 -10.74354 -0 13.21009 -0 1.732123 -22.80672 14.45227 -2.114139 -1.009381 2.783636 2.717315 10.00429 -7.999222 0.8679593 21.48039 7.683473 3.50746 -24.7038 8.645282 0.9411621 -17.10372 11.58855 92.30306 25.94422 -23.98123 -0 0 5.235423 -15.95983 8.933247 7.939984 8.021967 -26.05622 -4.121153 -84.93261 19.17297 9.779362 0 0 -30.69305 13.19853 13.67283 -2.388153
2.238185 97.29443 30.67172 0.04538874 -0.7238176 2.996363 3.583258 -29.99756 -4.043902 -0 4.584292 -0 -9.520582 3.293558 -0.0611221 -5.821529 16.98977 -9.515742 -0 16.87478 -0 -0.5057749 -22.05465 12.65116 -1.55467 -1.344008 2.538281 2.353403 9.618556 -7.706924 1.054297 22.04913 7.119996 3.024127 -23.65979 8.279612 -0.4752051 -16.63409 11.16527 93.80629 23.5038 -24.54242 -0 0 4.077559 -16.43072 8.617181 7.663348 7.708989 -26.15746 -4.614632 -84.4405 19.77501 8.722352 0 0 -31.95333 11.46884 14.14275 -0.8355835
2.385416 96.55633 37.08474 -0.6877036 -0.8215037 3.545196 5.458195 -27.30625 -2.437739 -0 7.312978 -0 -10.70785 1.784711 -0.9060403 -5.069917 16.56847 -9.68415 -0 23.66912 -0 -2.445887 -18.9638 11.34087 -0.2106009 -1.882724 2.389633 2.196481 9.361955 -7.591128 1.240629 22.09563 6.553267 2.52459 -23.68099 8.181886 -1.045057 -16.74046 10.81457 94.47596 22.95717 -24.60392 -0 0 4.827412 -15.30459 8.412393 7.02678 6.804693 -25.12419 -4.56296 -85.72457 20.89289 10.92799 0 0 -30.09995 9.244146 14.52954 1.828438
2.568391 96.83682 43.47417 -2.079346 -0.215456 3.825243 7.851591 -24.43874 0.4249653 -0 12.73854 -0 -12.02684 -0.6791105 -1.352088 -3.966727 13.67014 -10.32208 -0 34.49939 -0 -3.475587 -13.91197 10.27483 1.384026 -2.355936 2.649825 2.327254 9.723761 -7.881139 1.169548 21.53612 6.344141 2.338807 -24.77299 8.204135 -0.4177031 -17.30829 10.88241 94.23652 24.7113 -24.63922 -0 0 6.566228 -13.70274 8.79789 6.610891 5.527055 -23.94363 -4.154754 -87.83633 21.30037 15.19013 0 0 -26.51686 8.038732 14.30828 3.847444
2.836159 97.99018 49.67994 -2.913886 0.0554744 3.752967 8.98402 -20.74595 2.389622 -0 16.2247 -0 -12.95699 -3.356032 -1.36377 -3.228118 8.724568 -10.31961 -0 47.26341 -0 -3.378264 -8.846397 9.684748 2.165106 -2.474084 3.447218 2.530385 10.62124 -8.304091 0.9387462 21.06564 6.34197 2.458871 -25.63075 8.060172 0.788899 -17.79057 11.34553 93.54747 27.35306 -24.70012 -0 0 7.764973 -12.96023 9.777161 6.627269 4.336525 -23.46382 -3.884292 -89.10958 20.91524 18.47476 0 0 -23.52396 8.27126 13.72088 4.224203
3.134444 99.54116 55.6107 -2.610696 -0.7583058 3.335243 8.589446 -15.62851 2.861328 -0 16.14801 -0 -13.27879 -5.65122 -1.397477 -2.92269 2.813893 -9.579802 -0 57.58896 -0 -2.629091 -5.412218 10.10168 1.83673 -2.198415 4.519052 2.514874 11.57389 -8.342853 0.8572487 21.20779 6.136543 2.572812 -25.32155 7.669744 1.577938 -18.06971 11.8502 92.72496 29.05896 -24.10496 -0 0 8.325007 -13.38403 10.82157 6.960694 3.560959 -23.43795 -3.955558 -89.40232 20.48462 19.84066 0 0 -21.57062 8.899387 13.2967 3.741429
3.370981 101.0575 61.19628 -1.66317 -2.31327 2.772263 7.635348 -9.501546 2.599333 -0 13.97382 -0 -13.12734 -7.298395 -1.596261 -2.610187 -3.384428 -8.521449 -0 62.40299 -0 -1.794846 -3.742686 11.50552 0.9699549 -1.723433 5.547085 2.205728 12.31372 -7.863442 0.9902057 21.73176 5.650221 2.510083 -24.17897 7.174468 1.596991 -18.54158 12.19683 91.74811 29.36471 -22.42145 -0 0 9.185927 -14.53635 11.57445 7.559015 3.244347 -23.33126 -4.181595 -89.59367 20.20677 20.53595 0 0 -19.91788 9.086508 13.16402 3.408659
3.532257 102.2275 66.43835 -0.7295646 -3.872582 2.253132 6.86804 -3.276879 2.247252 -0 11.29857 -0 -12.67891 -8.572545 -1.802969 -1.930497 -9.523283 -7.38057 -0 61.04167 -0 -1.105543 -3.228241 13.37767 0.148723 -1.233298 6.358025 1.721479 12.79247 -7.085592 1.185554 22.19624 5.063339 2.284778 -22.89306 6.711111 1.09259 -19.48995 12.38913 90.56185 28.84616 -19.81651 -0 0 10.9496 -15.94286 12.05048 8.444261 3.267425 -22.95414 -4.332209 -90.14673 19.92856 21.6558 0 0 -18.18697 8.718424 13.14744 3.575715
3.680827 102.8374 71.42078 -0.1741298 -4.910327 1.837819 6.498476 2.291007 2.000808 -0 8.919863 -0 -12.03944 -10.06025 -1.866258 -0.7582 -15.2427 -6.198825 -0 54.16946 -0 -0.6050429 -3.30839 15.1763 -0.3519938 -0.8163458 6.873885 1.226202 12.967 -6.276907 1.284859 22.36717 4.555669 1.943301 -21.86968 6.341621 0.4344094 -20.88616 12.44704 89.10992 28.20588 -16.63837 -0 0 13.63182 -17.27064 12.37143 9.604874 3.473188 -22.32093 -4.265816 -90.9946 19.60096 23.42284 0 0 -16.45792 7.947582 13.04927 4.216501
3.899567 102.7717 76.27777 -0.1025905 -5.21216 1.509636 6.437274 6.793115 1.825984 -0 7.116323 -0 -11.27898 -12.29465 -1.715618 0.8200789 -20.09509 -4.996385 -0 43.13265 -0 -0.3031137 -3.626665 16.53502 -0.4868312 -0.5115662 7.070005 0.8523244 12.76188 -5.625276 1.214928 22.23918 4.223645 1.522145 -21.21849 6.090726 -0.1108605 -22.49655 12.3494 87.33742 27.88536 -13.19747 -0 0 16.88089 -18.32078 12.60347 10.97132 3.718606 -21.49105 -3.920764 -91.86364 19.33584 25.50252 0 0 -14.93998 6.945829 12.76584 5.190878
